<?xml version="1.0" standalone="no"?><!DOCTYPE svg PUBLIC "-//W3C//DTD SVG 1.1//EN" "http://www.w3.org/Graphics/SVG/1.1/DTD/svg11.dtd"><svg t="1567416193158" class="icon" viewBox="0 0 1075 1024" version="1.1" xmlns="http://www.w3.org/2000/svg" p-id="18652" xmlns:xlink="http://www.w3.org/1999/xlink" width="209.9609375" height="200"><defs><style type="text/css"></style></defs><path d="M1032.396 993.95a102.487 102.487 0 0 1-144.721 0L602.43 708.604c-68.29 18.02-143.594 1.075-197.09-52.42-53.599-53.548-70.543-128.903-52.524-197.142l124.756 124.755 144.72-144.72L497.59 314.32c68.24-17.969 143.595-1.024 197.09 52.472s70.441 128.851 52.422 197.09l284.987 285.398c40.135 39.878 40.135 104.841 0.308 144.72z m-397.253 29.743H465.338l-54.264-126.957c-13.156-5.478-21.347-8.703-34.452-14.18L248.334 933.85 128.186 813.753 179.53 685.67a4132.654 4132.654 0 0 1-14.18-34.401L38.394 596.647V426.79l126.957-54.315c4.761-11.467 9.522-22.934 14.18-34.4L128.186 209.99 248.334 89.843l128.032 51.345c13.361-5.733 21.296-9.01 34.657-14.487L465.338 0h169.856l54.264 126.701c13.413 5.734 21.347 9.01 34.709 14.487l128.032-51.345L972.347 209.99 921 338.074c5.734 13.31 9.01 21.296 14.487 34.657l126.65 54.367v169.804l-96.088 41.261-110.32-110.319a307.563 307.563 0 0 0-88.715-233.488 302.393 302.393 0 0 0-215.93-89.28c-26.773 0-53.496 3.584-79.45 10.392a305.618 305.618 0 0 0-217.568 217.568c-27.848 105.712 2.202 219.052 78.888 295.79a302.393 302.393 0 0 0 233.437 88.715l110.012 110.064-41.21 96.088z" p-id="18653" fill="#1296db"></path></svg>