<?xml version="1.0" standalone="no"?><!DOCTYPE svg PUBLIC "-//W3C//DTD SVG 1.1//EN" "http://www.w3.org/Graphics/SVG/1.1/DTD/svg11.dtd"><svg t="1567411252913" class="icon" viewBox="0 0 1024 1024" version="1.1" xmlns="http://www.w3.org/2000/svg" p-id="2516" xmlns:xlink="http://www.w3.org/1999/xlink" width="200" height="200"><defs><style type="text/css"></style></defs><path d="M513.2 66.5c-247.3 0-448 200.7-448 448s200.7 448 448 448c247.8 0 448-200.7 448-448s-200.7-448-448-448z m281.6 729.4c-36.5 36.6-79.1 65.3-126.5 85.3-49.1 20.8-101.3 31.3-155.1 31.3-53.7 0-105.8-10.5-154.8-31.3-47.4-20.1-90-48.8-126.5-85.3-36.6-36.6-65.3-79.2-85.3-126.5-20.7-49-31.3-101.1-31.3-154.8s10.5-105.8 31.3-154.8c20.1-47.4 48.8-90 85.3-126.5 36.6-36.6 79.2-65.3 126.5-85.3 49-20.7 101.1-31.3 154.8-31.3 53.7 0 105.8 10.5 154.8 31.3 47.4 20.1 90 48.8 126.5 85.3 36.6 36.6 65.3 79.2 85.3 126.5 20.7 49 31.3 101.1 31.3 154.8 0 53.7-10.5 105.8-31.2 154.9-19.9 47.2-48.6 89.8-85.1 126.4z" p-id="2517" fill="#1296db"></path><path d="M675.4 290.4c-9.5-9.5-24.9-9.5-34.5 0-9.5 9.5-9.5 24.9 0 34.5l34.2 34.3-25.2 26.3c-8.3 8.5-8.3 22 0 30.5 4.1 4.3 9.5 6.4 15 6.3l28.5-0.1v223.6c0 8.2-6.7 14.9-14.9 14.9s-14.9-6.7-14.9-14.9V506.7c0-17.1-6.8-33.5-18.9-45.7-12.1-12.1-28.5-18.9-45.7-18.9h-14.9V322.9c0-21.9-17.8-39.7-39.7-39.7H335.8c-22 0-39.8 17.8-39.8 39.8v387.4h-5c-13.4 0.4-24.1 11.4-24.1 24.8s10.7 24.4 24.1 24.8h298c13.4-0.4 24.1-11.4 24.1-24.8s-10.7-24.4-24.1-24.8h-5V491.8h15c8.2 0 14.9 6.7 14.9 14.9v139.1c0 35.7 28.9 64.6 64.6 64.6 35.7 0 64.6-28.9 64.6-64.6V378.4c0-14-5.8-26.6-15-35.7l-52.7-52.3zM534.4 460c0 5.8-2.3 11.4-6.4 15.5-4.1 4.1-9.7 6.4-15.5 6.4h-145c-5.8 0-11.4-2.3-15.5-6.4-4.1-4.1-6.4-9.7-6.4-15.5V354.7c0-12.1 9.7-21.8 21.9-21.8h145c12.1 0 21.9 9.7 21.9 21.8V460z" p-id="2518" fill="#1296db"></path></svg>