<?xml version="1.0" standalone="no"?><!DOCTYPE svg PUBLIC "-//W3C//DTD SVG 1.1//EN" "http://www.w3.org/Graphics/SVG/1.1/DTD/svg11.dtd"><svg t="1567414569654" class="icon" viewBox="0 0 1480 1024" version="1.1" xmlns="http://www.w3.org/2000/svg" p-id="10471" xmlns:xlink="http://www.w3.org/1999/xlink" width="289.0625" height="200"><defs><style type="text/css"></style></defs><path d="M177.82552082 337.98660469c0-22.76950836 3.88169289-39.01082039 11.20862961-48.85062217 7.47138977-9.70152855 23.92127037-14.44298744 49.71656799-14.44298745h158.63416672v632.66341209h-68.11077117c-18.24743272 0-36.13798142-0.14213562-53.88175965-0.57394981-17.8905487-0.28504372-29.96048928-0.57549477-36.57211303-0.57549477-22.34155655 0.86594582-38.07844162-2.94545173-47.19984056-11.49367332C182.56543476 886.30874824 177.89504368 870.14545632 177.89504368 846.57643509V664.4528122c0-9.26971435 1.57816887-16.31237983 4.38457489-20.76338769 2.80099868-4.5985508 8.83712768-7.83290863 17.95775413-9.5601654 3.37572097 0 7.76106834-1.29389763 13.72458458-3.80367279 5.67306518-2.65963554 11.4944458-6.75375938 17.24321366-12.218256 5.74490547-5.45986175 10.77681541-12.4971199 14.87171172-21.48256301 4.09412384-8.76296997 6.24933243-19.46871757 6.24933243-32.25628853 0-19.39919472-5.09834289-34.4833374-15.44720649-45.47799111-10.34345627-10.91972351-21.40995026-17.38689423-33.04653167-18.89476775-8.98389817-1.64923668-15.66581726-4.52748298-19.75994111-8.26008798C179.90734417 487.78596116 177.82552082 481.31647301 177.82552082 472.05371094V337.98660469z m102.95485497-120.19497872V184.81693459c0-16.73955918 6.53360366-32.47567178 19.25165176-46.77188874C312.74621326 123.74960137 326.6863187 116.4921875 341.55803044 116.4921875h171.27960205v101.29943848H280.78114827zM1291.84434255 492.31189918c-6.46176338 1.79214477-11.3515377 5.31772614-14.2954445 10.91895104-2.65886306 5.31695366-4.38457489 11.4944458-4.38457489 18.10529709 0 6.89512253 1.65541648 13.3638382 4.38457489 19.61317063 2.94313431 6.46717072 7.83290863 10.92281342 14.2954445 13.36229324 6.61085129 2.65963554 11.92703247 7.69000054 15.59474944 15.16061783 3.80367279 7.68613816 5.88626862 15.5901146 6.17671967 24.14142608a67.89293289 67.89293289 0 0 1-3.09144974 23.99697304c-2.51595498 7.54245758-6.17671966 13.07261468-11.06185913 16.52017593-16.52558327 10.13025283-24.71383095 21.48256301-24.71383094 34.1264534s8.11640739 25.43300629 24.71383094 37.86369325c3.37572097 2.65963554 6.32040024 7.32925415 9.26430702 13.86285781 2.80640603 6.90052986 4.24166679 13.58322143 4.24166679 20.47834396 0 6.75375938-1.50632858 12.50329971-4.88822936 17.52902984-3.37572097 5.17559052-9.12139893 7.69000054-17.38225938 7.69000054h-66.95978164c-4.74145889 0-7.54709243-0.43335915-7.83290864-1.43526077-0.43258667-0.86594582 0.14368058-2.23245621 1.65078164-4.24243927 1.65541648-2.22473145 3.66617202-4.52825546 6.182127-7.18557357 2.51054764-2.51054764 4.52284812-5.45986175 6.32040024-8.83712769 4.09412384-11.77948952 4.09412384-21.90896988 0-30.31582834-4.23780442-8.55285645-11.06185913-15.58856964-21.19597435-21.48256301-6.60467148-3.37572097-11.49367332-8.69190216-14.15176392-16.0211563-2.94467927-7.03803062-4.09412384-14.43758011-3.66153717-22.05651284 0.28581619-7.68613816 1.65000916-14.29621697 4.23703194-20.18866539 2.51595498-6.03690147 6.32658005-10.27161598 11.06726646-12.78757096 6.75375938-2.51595498 11.6373539-7.18557358 14.87171173-13.86826515 3.37572097-6.61007881 5.02650261-13.86131287 5.02650262-21.48101806 0-7.61352539-1.43603325-14.58666802-3.66153718-20.90552331-2.51595498-6.31962776-6.17671966-10.77604294-11.3515377-13.2209301-6.46794319-3.5209465-11.6373539-8.40222358-15.4472065-15.30275345-3.73801231-6.46408081-5.53015708-14.00499344-5.53015709-22.48446464 0-8.5513115 1.50710106-16.66694641 4.88359451-24.71614837 3.37572097-8.04611206 8.5513115-14.58435059 16.0219288-19.61162568 5.17559052-3.37726593 9.26816941-7.97581672 12.50252722-13.86749267 3.51940156-6.03535652 5.02650261-12.21284866 5.74490548-18.96660804 0.43335915-6.82328225-1.15098953-13.29045295-3.8098526-19.61008073-2.94313431-6.39764785-8.11717987-11.57169342-15.58856965-15.80872535-8.11717987-4.1667366-14.29544449-10.42070389-17.96238899-18.319273-3.66153717-8.04611206-5.6012249-16.38267517-5.60122489-24.7153759 0-8.5513115 1.94123269-16.45374298 5.60122489-24.13988113 3.6669445-7.46984483 8.84176254-13.50520134 15.44643403-17.81870842 14.01040077-7.46984483 21.91514969-17.8905487 22.99507141-30.89286804 1.29389763-13.07261468 0.28504372-25.22057534-3.09144975-35.9958458-2.65886306-8.54513168-7.46984483-16.0929966-14.72803115-22.84521103-7.54245758-6.82559966-17.09721565-10.13025283-28.59706878-10.13025284H588.63454182V116.4921875h698.47065925c5.75108528 0 10.49254417 2.15366363 14.58666802 6.32040024 4.23780442 4.24089431 7.0388031 9.26816941 8.26086045 15.23168563 1.29389763 5.89399338 0.86517334 11.99887276-1.29389763 18.319273-1.94046021 6.25319481-5.88626862 11.71305656-11.78026199 15.94931603-5.03190994 4.24398423-9.41107749 9.56016541-13.07802202 16.38422012-3.80367279 6.75375938-5.60045243 13.64965439-6.31885528 20.9055233-0.29122353 7.25741387 0.85899353 14.29621697 3.23358536 21.55363083 2.36841202 7.11450577 6.89512253 12.43068695 13.57781411 15.8071804 9.26816941 5.02727509 16.02115631 11.99810028 20.47293662 20.76416016 4.5985508 8.83481026 6.97237014 17.67116546 6.97237015 26.43568038 0 8.98389817-2.37304688 17.17214585-6.89512253 24.71460343-4.52825546 7.68613816-10.78222275 13.22170258-19.11337852 16.45606041-9.12680626 3.5178566-15.87902069 8.26008797-19.9028492 14.57971573-4.23780442 6.39610291-6.32040024 13.3638382-6.89512253 20.83368301-0.43413162 7.6197052 1.15098953 15.01925468 4.7414589 22.1291256 3.80908012 7.25741387 9.84443664 13.51060868 18.10375213 18.53788376 8.26086045 4.88359451 14.44298744 11.6373539 18.10375214 20.18789291 3.6669445 8.33656311 5.17559052 16.73955918 4.88359451 25.29087067-0.42795181 8.40145111-2.51054764 16.16251945-6.17671967 23.4207058-3.80444527 7.03725815-9.19864655 11.13292695-16.74110413 11.99887275z m-161.21423723-18.96969796c-9.8459816 2.51595498-17.52980232 7.4767971-22.99507141 14.44375994-5.31695366 7.3277092-8.11717987 14.58435059-8.69267464 22.34001159-0.28427124 7.54786492 1.7975521 15.16139031 6.182127 22.84675598 4.74145889 7.47756958 11.35231018 12.93511391 20.61507225 16.31237984 8.12335969 3.51940156 14.44298744 8.55053902 18.53788377 15.15521049 4.23780442 6.90130234 6.46717072 14.01117324 6.89512252 21.63087845 0.43413162 7.61352539-1.14480972 14.87016678-4.37994003 21.48256302-3.23358535 6.75221443-8.26549531 11.92703247-14.87016677 15.15598297-20.62125205 10.27625083-31.46836282 22.48832703-32.11569786 36.78454399-1.00885391 14.30007935 6.89512253 25.64620972 23.42147826 34.26858902 7.46984483 3.37572097 13.50520134 8.5513115 17.95620919 15.73534011 4.5985508 7.18789101 7.04498291 14.73112106 7.54786492 22.84752847 0.42795181 7.83290863-1.15098953 15.16061782-4.52825547 21.33888245-3.23435783 6.61085129-8.69267464 10.77604294-16.02115632 13.50674629-9.98734475 2.51595498-17.52980232 7.03725815-23.13102722 13.86672019-5.17559052 6.60467148-7.97581672 13.86131287-8.40763092 21.33347512-0.57549477 7.83290863 1.50632858 15.30352593 6.1759472 22.85139084 4.52825546 7.68459321 11.78412437 14.00499344 21.62392615 19.1079712 6.75762176 3.37572097 11.35231018 8.69267464 14.30007935 15.73688505 2.94390679 7.32307434 3.95198822 14.15253639 3.23435783 20.90475083-1.00885391 6.75375938-3.23435783 12.93125153-7.04421043 18.24743272-3.66076469 5.60045243-8.83558273 8.26086045-15.58856964 8.26086044H470.5947717V274.69376755h656.2262535c6.61085129 0 11.92703247 2.58779526 15.73147774 8.26008797 3.6669445 5.46449661 5.60817719 11.49985313 6.18289947 18.32468032 0.42795181 6.82405472-1.15098953 13.50597382-4.52825546 20.18712044-3.23435783 6.6819191-8.69267464 11.42337799-16.02115631 13.86826515-7.47138977 2.58084297-13.50674629 6.82250977-18.10529709 12.71650315-4.5985508 5.81520081-7.18557358 12.4971199-8.11717986 19.53978538-0.71840286 7.25200653 1.0026741 14.08146858 5.02573012 20.90706826 4.24243927 6.82328225 11.20862961 11.85519218 21.19674683 15.15598296 7.32848167 3.38190079 13.50520134 8.40840339 17.96161652 15.23168564 4.45100784 6.82328225 7.18634605 13.65274429 7.47138977 20.76416016 0.43258667 7.39800454-1.29389763 14.00885582-4.88359452 20.47834397-3.66617202 6.17594719-9.70230102 10.70420266-18.10452461 13.21475028zM831.61306698 558.26359939c-3.95121575 0-8.40763091-0.42949676-13.078022-1.29389763-4.45718765-1.00421906-5.31618118-3.5209465-3.09067726-7.68613815 1.00885391-1.50787354 4.88822937-7.5416851 11.92703247-17.67734527a656.32358552 656.32358552 0 0 1 23.56361389-32.25628853c8.69344712-11.49521828 16.52558327-22.20096589 24.28819656-32.25860596 7.32925415-10.12870789 11.92239761-16.44910812 13.50674629-19.10797119 4.23703193-6.61085129 1.65000916-14.58435059-7.47138977-23.92436028-1.5125084-1.72725677-4.88822937-4.31505203-9.98657226-7.76338577-4.74145889-3.30388069-9.33923721-5.81442832-13.43336106-7.46984481-6.75453186-2.43947983-11.50062561-2.94390679-14.44453238-1.22282983-2.65886306 1.65618896-6.32040024 5.38879395-10.41375161 11.35231019-1.65618896 2.44488716-5.7503128 8.62083435-12.50252724 18.25361251-6.53978348 9.90855218-13.5778141 20.11528015-21.0546112 31.105299-7.39877701 11.06031418-14.29621697 20.9055233-20.47293663 29.59819794-6.32040024 8.98544312-9.77336883 14.15253639-10.49177171 15.95163345-1.57894134 3.23435783-4.81252671 4.6696186-9.41184997 3.80985261-4.52671052-0.86517334-7.5416851-2.95008659-9.12062645-6.32658005-1.00808144-1.64846421-4.59777833-6.60776138-11.27969741-14.72803116-6.6819191-7.8275013-13.79642486-16.81062698-21.12567902-27.08301544-7.3277092-10.27779579-14.57971572-19.46949005-21.62392617-28.4541607-7.11450577-8.90665054-11.78412437-14.94123459-14.36573982-18.45986366-7.4767971-14.30085183-15.30275345-18.89476777-23.49254607-13.79642486-5.82138062 3.30619812-11.06726646 6.89512253-15.66581727 10.63313483-4.52748298 3.95276069-8.83558273 7.11450577-12.93125153 9.70230103-8.26008797 5.744133-9.48214531 13.43336106-3.73723983 22.69766808 14.0096283 16.81062698 26.51292801 32.40537644 37.28819847 46.84295654 9.04955864 11.78489685 17.67271042 22.99507141 26.08111381 34.27013397 8.18824768 10.78222275 13.14368247 17.10262299 14.72803116 18.97124292 1.72030449 3.23435783 0 5.02650261-4.96084213 5.02650259h-14.72803116c-4.09412384 0-10.20132065 0.1429081-17.95698166 0.57394982-7.97504425 0.4349041-15.23323059 0.29045105-21.91360474-0.57394982-6.54055596 0-11.99887276 1.5055561-16.16483687 5.03190995-4.02305603 3.23435783-5.31695366 7.46984483-3.59510422 12.49557495 0.79410553 3.52635383 1.22205734 8.55285645 1.22205734 15.16370773v15.44566155c0 4.09412384 1.15098953 6.46717072 3.73878479 6.89512253 2.5151825 0.36306382 5.31618118 0.50365448 8.69267464 0.50365448h71.98628425c9.77336883 0 14.72803116 2.08259583 14.72803116 6.32658004v23.99156571c0 4.38534737-0.71840286 6.46794319-2.43870735 6.46794319h-83.12616348c-4.88822937-0.86053848-8.12258721 0.43258667-9.8428917 3.66153717-1.57816887 3.52403641-2.80099868 7.32848167-3.73878479 11.49908066-0.86053848 4.37916756-0.86053848 8.26086045 0 11.92162514 0.93778611 3.94967079 1.15098953 7.18557358 1.15098953 9.56016541 0 11.06185913 5.38879395 16.51940346 16.16560937 16.51940345h74.50069427c4.31505203 0 6.6819191 0.57549477 7.40032196 1.79755211 0.794878 1.29389763 1.29389763 4.09412384 1.29389762 8.26086044 0.86517334 4.24166679 1.15098953 11.78412437 0.57549477 22.70384789-0.35611152 11.06726646-0.64656258 18.1763649-0.64656257 21.69885635 0 9.26662445 5.38802147 13.86440277 16.0929966 13.86440276h39.80569839c6.603899 0 9.97961997-2.08182335 9.97961998-6.46176337v-50.51067353c0-8.54513168 3.81062508-12.78757095 11.06803894-12.78757095h11.20862961c5.74490547 0 12.35575676-0.1429081 19.25010681-0.71840286 7.18634605-0.28427124 13.86826516-0.57472229 20.33543587-0.57472229h16.16560936c11.4944458 0 17.52902984-4.23780442 17.52902985-12.49634742v-27.95127869c0-7.68845558-4.09412384-11.49212837-12.35575677-11.49212837h-72.1338272c-8.11717987 1.79214477-12.50175476 0-12.50175477-5.03190995 0-2.3691845-0.14368058-5.60199738-0.57549476-9.41184997-0.42795181-3.80367279-0.49824714-7.18557358-0.49824715-10.70497514 0-3.23667527 1.29389763-5.89244842 4.23780441-7.46984481 3.02038193-1.79832458 6.10642433-2.66040802 9.33923722-2.66040802h73.28018188c8.11795235 0 12.36116409-2.80099868 12.36116409-8.83558274v-30.38921355c0-3.37572097-1.43526077-6.60930634-4.38457488-9.98502732-2.94467927-3.52558135-6.46253586-5.03268242-10.48636437-5.03268242h-42.24749565v-0.00077248z m0 0" p-id="10472" fill="#e0620d"></path></svg>