<?xml version="1.0" standalone="no"?><!DOCTYPE svg PUBLIC "-//W3C//DTD SVG 1.1//EN" "http://www.w3.org/Graphics/SVG/1.1/DTD/svg11.dtd"><svg t="1567411792635" class="icon" viewBox="0 0 1024 1024" version="1.1" xmlns="http://www.w3.org/2000/svg" p-id="7109" xmlns:xlink="http://www.w3.org/1999/xlink" width="200" height="200"><defs><style type="text/css"></style></defs><path d="M449.32 648.76c31.93 11.71 63.4 23.59 93.71 36.78a7.44 7.44 0 0 1 3.92 9.22 6.27 6.27 0 0 1-8.49 3.89c-30.05-13.48-61.23-25.73-93.1-37.45a7.35 7.35 0 0 1-4-3.56 7.15 7.15 0 0 1-0.75-2.51v-0.33-0.33-0.66a6.68 6.68 0 0 1 0.27-1.3 5.94 5.94 0 0 1 3.27-3.66 6.41 6.41 0 0 1 2.47-0.55h0.71a5.1 5.1 0 0 1 0.67 0.08 6.75 6.75 0 0 1 1.35 0.36zM603 710.21c29.22 14.46 57.6 29.68 85.55 45.47 3.15 1.78 4.49 6.41 2.95 10.38s-5.35 5.73-8.48 3.93c-27.82-16-56-31.37-85-46.08-3.26-1.66-4.76-6.09-3.39-9.86s5.1-5.46 8.39-3.84zM744.21 784.76c27.59 16.88 54.88 34.79 83.29 55.32 6.1 4.38 8 5.31 11.14 8.4a120.62 120.62 0 0 1-11.71 11.32c-1-0.8-4.08-2.93-4.49-3.23-28.89-21.36-56.25-39.8-83.84-57-3.1-1.95-4.32-6.83-2.78-10.88s5.29-5.79 8.39-3.9z" fill="#00CC66" p-id="7110"></path><path d="M981 512c0-259-210-469-469-469S43 253 43 512s210 469 469 469a467.16 467.16 0 0 0 202.4-45.81c-82-97.54-296.07-320-599.07-342.72-6.75-11.08 0-13.78 0-13.78s272.92-27.51 778.56 204.5v1.13A466.83 466.83 0 0 0 981 512z m-671.49-0.53a5.67 5.67 0 0 1-5.44 5.88H142c-10 0-16.53-10.26-14.62-22.54l7.83-50.81c3.57-23.06 20.17-40.18 38.45-43.56v-0.62H286a5.66 5.66 0 0 1 5.43 5.87v2.85c0 19-14.23 34.38-31.78 34.38h-67.43c-7.75 0-15 6.49-16.16 14.73l-1.51 10.46c-0.49 3.38 1.68 6.16 4.86 6.16h98.39c17.55 0 31.79 15.39 31.79 34.38z m27.16-170.54c0 19-14.23 34.38-31.78 34.38H159.17a5.67 5.67 0 0 1-5.44-5.88v-2.85c0-19 14.23-34.38 31.79-34.38h145.72a5.67 5.67 0 0 1 5.43 5.88z m114.69 60.37l-17.72 88.62h-0.86v0.18c-3.69 18.56-20.57 30.37-37.69 26.36l-2.57-0.6a5.89 5.89 0 0 1-4.16-7l17.62-88.51h0.68l0.06-0.27c3.71-18.59 20.69-30.41 37.91-26.4l2.58 0.6a5.91 5.91 0 0 1 4.15 7.02z m-99.32-26a5.66 5.66 0 0 1-5.42-5.88v-2.85c0-19 14.2-34.38 31.72-34.38h145.43a5.67 5.67 0 0 1 5.42 5.88v2.85c0 19-14.2 34.38-31.72 34.38z m321.76-34.42c0 18.89-17.14 34.2-38.29 34.2h-5.75a30.55 30.55 0 0 0-5.08-0.43h-17.52c-14.11 0-28.14 12.42-31.59 29l-12.2 58.51c-1.37 6.61 1.64 12.12 6.78 12.12h40.38v0.22h25c21.15 0 38.29 15.31 38.29 34.2v2.83c0 3.23-2.93 5.85-6.55 5.85H553.79v-0.17c-1.15 0.1-2.31 0.17-3.49 0.17-22.64 0-36.94-19.31-33.18-39.77L541 347.78c1.63-8.83 13.37-15.58 26.33-15.58 0.61 0 1.21 0 1.81 0.06v-0.06h98.12c3.62 0 6.55 2.62 6.55 5.85z m147.72 109.6v75.65c-20.63 0-37.35-16.94-37.35-37.83v-37.82h-74.72a37.59 37.59 0 0 1 37.36-37.82h37.36V337c20.63 0 37.35 16.94 37.35 37.83v37.82h74.71a37.58 37.58 0 0 1-37.35 37.82z" fill="#12B660" p-id="7111"></path></svg>