<?xml version="1.0" standalone="no"?><!DOCTYPE svg PUBLIC "-//W3C//DTD SVG 1.1//EN" "http://www.w3.org/Graphics/SVG/1.1/DTD/svg11.dtd"><svg class="icon" width="64px" height="64.00px" viewBox="0 0 1024 1024" version="1.1" xmlns="http://www.w3.org/2000/svg"><path d="M501.333333 170.666667C298.666667 170.666667 130.133333 317.866667 96 512l-42.666667 0c36.266667-217.6 221.866667-384 448-384 226.133333 0 411.733333 166.4 448 384l-42.666667 0C872.533333 317.866667 704 170.666667 501.333333 170.666667zM352 512c0-83.2 66.133333-149.333333 149.333333-149.333333 83.2 0 149.333333 66.133333 149.333333 149.333333s-66.133333 149.333333-149.333333 149.333333C418.133333 661.333333 352 595.2 352 512zM608 512c0-59.733333-46.933333-106.666667-106.666667-106.666667-59.733333 0-106.666667 46.933333-106.666667 106.666667s46.933333 106.666667 106.666667 106.666667C561.066667 618.666667 608 571.733333 608 512zM501.333333 853.333333c202.666667 0 371.2-147.2 405.333333-341.333333l42.666667 0c-36.266667 217.6-221.866667 384-448 384-226.133333 0-411.733333-166.4-448-384l42.666667 0C130.133333 706.133333 298.666667 853.333333 501.333333 853.333333z" fill="#cdcdcd" /></svg>