<?xml version="1.0" standalone="no"?><!DOCTYPE svg PUBLIC "-//W3C//DTD SVG 1.1//EN" "http://www.w3.org/Graphics/SVG/1.1/DTD/svg11.dtd"><svg t="1567411921289" class="icon" viewBox="0 0 1024 1024" version="1.1" xmlns="http://www.w3.org/2000/svg" p-id="1144" xmlns:xlink="http://www.w3.org/1999/xlink" width="200" height="200"><defs><style type="text/css"></style></defs><path d="M810.542 1023.574a42.649 42.649 0 0 1 0-85.298h85.298a42.649 42.649 0 0 0 42.649-42.65V810.33a42.649 42.649 0 0 1 85.298 0v85.298a127.947 127.947 0 0 1-127.947 127.947z m-597.084 0H128.16A127.947 127.947 0 0 1 0.213 895.627v-85.298a42.649 42.649 0 0 1 85.298 0v85.298a42.649 42.649 0 0 0 42.649 42.649h85.298a42.649 42.649 0 0 1 0 85.298z m767.68-469.138H42.862a42.649 42.649 0 0 1 0-85.298h938.276a42.649 42.649 0 0 1 0 85.298z m0-298.543a42.649 42.649 0 0 1-42.649-42.649v-85.297a42.649 42.649 0 0 0-42.649-42.65h-85.298a42.649 42.649 0 0 1 0-85.297h85.298a127.947 127.947 0 0 1 127.947 127.947v85.297a42.649 42.649 0 0 1-42.65 42.65zM42.862 239.687a42.649 42.649 0 0 1-42.649-42.65v-69.09A127.947 127.947 0 0 1 128.16 0h85.298a42.649 42.649 0 0 1 0 85.298H128.16a42.649 42.649 0 0 0-42.649 42.649v69.09a42.649 42.649 0 0 1-42.649 42.65z" p-id="1145" fill="#ffffff"></path></svg>