<?xml version="1.0" standalone="no"?><!DOCTYPE svg PUBLIC "-//W3C//DTD SVG 1.1//EN" "http://www.w3.org/Graphics/SVG/1.1/DTD/svg11.dtd"><svg t="1567416578954" class="icon" viewBox="0 0 1024 1024" version="1.1" xmlns="http://www.w3.org/2000/svg" p-id="39705" xmlns:xlink="http://www.w3.org/1999/xlink" width="200" height="200"><defs><style type="text/css"></style></defs><path d="M512 5.12C232.0384 5.12 5.12 232.0384 5.12 512s226.9184 506.88 506.88 506.88 506.88-226.9184 506.88-506.88S791.9616 5.12 512 5.12z m273.8176 737.5872c-11.1616 12.0832-27.2384 18.432-43.6224 17.408-16.4864 0.512-32.256-6.0416-43.4176-18.1248-11.1616-12.0832-16.6912-28.4672-14.6432-44.8512V452.5056c-1.024-5.4272-5.2224-10.1376-10.6496-9.1136H646.144v321.536h21.9136c8.8064 0 15.9744 7.0656 15.9744 15.872v21.9136c0 8.9088-7.0656 16.0768-15.9744 16.4864H239.9232c-8.2944-0.3072-15.6672-6.656-15.6672-14.9504v-23.4496c-1.024-4.5056 0.8192-9.216 3.8912-12.4928 3.072-3.3792 7.168-5.4272 11.776-5.4272H262.144V243.2c0-21.1968 17.2032-38.4 38.4-38.4h307.2c21.1968 0 38.4 17.2032 38.4 38.4V405.504h44.9536c26.5216 2.048 28.7744 11.9808 28.7744 35.0208v254.5664c0 5.8368 1.2288 11.6736 5.12 16.0768 3.8912 4.4032 9.4208 6.7584 15.36 6.656 9.9328 0 19.456-5.4272 19.456-22.6304V384.1024c0-2.048-1.7408-3.1744-3.7888-3.1744h-49.152c-1.1264 0-3.3792-1.024-3.3792-3.2768v-12.6976c-1.024-1.1264-0.7168-2.3552-0.2048-3.4816 9.6256-10.3424 24.8832-22.2208 34.4064-33.792-9.6256-13.824-29.5936-30.3104-38.5024-38.4-3.584-3.3792-5.632-7.9872-5.632-12.9024s1.9456-9.5232 5.5296-12.9024c7.68-7.3728 19.8656-7.3728 27.648 0 10.3424 9.9328 43.7248 39.2192 63.3856 56.4224 5.8368 4.4032 9.6256 11.1616 9.6256 18.432v359.424c2.048 16.384-2.7648 32.8704-13.9264 44.9536z" p-id="39706" fill="#d81e06"></path><path d="M550.1952 274.432H358.1952c-14.2336 0-26.4192 11.3664-26.4192 25.6v135.168c0 13.824 11.3664 25.6 25.1904 25.6h192c6.9632 0 13.6192-2.4576 18.5344-7.2704 5.0176-4.8128 7.7824-11.1616 7.8848-18.3296h1.024V300.032c0-6.9632-2.8672-13.4144-7.8848-18.3296-4.8128-4.8128-11.4688-7.2704-18.3296-7.2704z" p-id="39707" fill="#d81e06"></path></svg>