<?xml version="1.0" standalone="no"?><!DOCTYPE svg PUBLIC "-//W3C//DTD SVG 1.1//EN" "http://www.w3.org/Graphics/SVG/1.1/DTD/svg11.dtd"><svg t="1567414209003" class="icon" viewBox="0 0 1191 1024" version="1.1" xmlns="http://www.w3.org/2000/svg" p-id="7239" xmlns:xlink="http://www.w3.org/1999/xlink" width="232.6171875" height="200"><defs><style type="text/css"></style></defs><path d="M1189.606469 265.974026h-50.183778V80.544964a30.361186 30.361186 0 0 0-30.361186-30.361186h-223.317815v-50.183778h224.070571a80.544964 80.544964 0 0 1 79.792208 80.544964zM1109.563342 1024H885.74369v-50.183778h224.070571a30.361186 30.361186 0 0 0 29.60843-30.361186v-185.429062h50.183778v184.425386a80.544964 80.544964 0 0 1-80.043127 81.54864zM56.958589 265.974026h-50.183779V80.544964A80.544964 80.544964 0 0 1 87.319775 0h224.070571v50.183778H87.068856a30.361186 30.361186 0 0 0-30.110267 30.361186zM311.390346 1024H87.068856a80.544964 80.544964 0 0 1-80.544965-80.544964v-185.429062h50.183779v184.425386a30.361186 30.361186 0 0 0 30.361186 30.361186h224.32149zM0 483.018868h1190.108307v59.216859H0z" p-id="7240" fill="#ffffff"></path></svg>