<?xml version="1.0" standalone="no"?><!DOCTYPE svg PUBLIC "-//W3C//DTD SVG 1.1//EN" "http://www.w3.org/Graphics/SVG/1.1/DTD/svg11.dtd"><svg t="1567416611731" class="icon" viewBox="0 0 1024 1024" version="1.1" xmlns="http://www.w3.org/2000/svg" p-id="40564" xmlns:xlink="http://www.w3.org/1999/xlink" width="200" height="200"><defs><style type="text/css"></style></defs><path d="M512 512m-512 0a512 512 0 1 0 1024 0 512 512 0 1 0-1024 0Z" fill="#01a78a" p-id="40565"></path><path d="M256.64 794.88a29.12 29.12 0 0 1-24.96-14.08 29.76 29.76 0 0 1 0-32 29.44 29.44 0 0 1 24.96-12.8h8.64V276.16a47.36 47.36 0 0 1 47.36-47.04h247.68a47.36 47.36 0 0 1 47.36 47.04v141.44h17.6a76.8 76.8 0 0 1 76.8 76.8v165.12a17.6 17.6 0 0 0 35.2 0v-265.6h-34.24a23.68 23.68 0 0 1-16.96-7.68 25.6 25.6 0 0 1 0-36.16l32-32-42.24-39.36a28.48 28.48 0 0 1-7.04-20.8 28.8 28.8 0 0 1 49.28-20.16l62.08 62.08a59.84 59.84 0 0 1 16.64 42.24v317.44a76.8 76.8 0 0 1-153.6 0v-165.12a17.6 17.6 0 0 0-17.6-17.6H608V736h5.76a29.44 29.44 0 0 1 0 58.56H256.64z m156.16-451.84a109.12 109.12 0 0 1-4.48 93.44l-11.52 14.72v1.92a152.64 152.64 0 0 0-44.48 101.12c0 56.96 23.36 87.04 89.6 115.84a135.04 135.04 0 0 0 48-22.08 112.96 112.96 0 0 0 47.36-96c0-96-117.76-204.48-122.88-208.96z m27.2 322.24a87.68 87.68 0 0 1-32-64 92.48 92.48 0 0 1 36.8-68.8 110.72 110.72 0 0 1 32 67.52 99.52 99.52 0 0 1-36.16 64z m0 0" fill="#FFFFFF" p-id="40566"></path></svg>