<?xml version="1.0" standalone="no"?><!DOCTYPE svg PUBLIC "-//W3C//DTD SVG 1.1//EN" "http://www.w3.org/Graphics/SVG/1.1/DTD/svg11.dtd"><svg t="1567414465649" class="icon" viewBox="0 0 1024 1024" version="1.1" xmlns="http://www.w3.org/2000/svg" p-id="8684" xmlns:xlink="http://www.w3.org/1999/xlink" width="200" height="200"><defs><style type="text/css"></style></defs><path d="M874.48305 916.476683H150.053466c-46.868351 0-85.223095-38.354744-85.223095-85.223095V405.118659c0-46.872446 38.354744-85.227191 85.223095-85.227191h724.429584c46.867327 0 85.222071 38.354744 85.222071 85.227191v426.133905c0.001024 46.869375-38.35372 85.224119-85.222071 85.224119" fill="#EF522A" p-id="8685"></path><path d="M842.521446 469.038796H182.016094c-17.037452 0-31.953413-14.915961-31.953413-31.957509 0-17.046667 14.915961-31.962628 31.953413-31.962628h660.505352c17.045643 0 31.962628 14.914938 31.962628 31.962628-0.001024 17.041547-14.916985 31.957509-31.962628 31.957509M842.521446 831.253588H735.990273c-17.046667 0-31.952389-14.914938-31.952389-31.962629 0-17.045643 14.905723-31.957509 31.952389-31.957508h106.531173c17.045643 0 31.962628 14.910842 31.962628 31.957508-0.001024 17.046667-14.916985 31.962628-31.962628 31.962629m-213.062345 0H522.917689c-17.046667 0-31.952389-14.914938-31.952389-31.962629 0-17.045643 14.905723-31.957509 31.952389-31.957508h106.541412c17.045643 0 31.952389 14.910842 31.952389 31.957508s-14.906746 31.962628-31.952389 31.962629" fill="#FFFFFF" p-id="8686"></path><path d="M365.256755 115.346825c-42.616155-19.177372-93.756155-2.130705-112.924312 40.48545l-76.709489 164.058169h628.543747L365.256755 115.346825z" fill="#F7984F" p-id="8687"></path></svg>